<svg width="65" height="65" viewBox="0 0 65 65" fill="none" xmlns="http://www.w3.org/2000/svg">
<g clip-path="url(#clip0_454_2553)">
<path d="M3.53917 34.7758V23.145L10.57 21.4711C10.8871 20.5431 11.2644 19.6337 11.6983 18.7513L7.90948 12.5944L16.1337 4.37019L22.2906 8.15911C23.1729 7.72522 24.0823 7.34796 25.0103 7.03081L26.6842 0H38.3148L39.9889 7.03081C40.9169 7.34796 41.8262 7.72522 42.7086 8.15911L48.8654 4.37019L57.0898 12.5944L53.301 18.7513C53.7349 19.6337 54.1121 20.5431 54.4293 21.4711L61.46 23.1449V34.7756L54.4291 36.4497C54.112 37.3777 53.7347 38.2871 53.3009 39.1695L57.1075 45.3553L51.405 50.8174C52.0092 52.6281 52.3213 54.5323 52.3213 56.4654V65H12.4204V56.4654C12.4204 54.5983 12.713 52.7585 13.2773 51.0035L7.93741 45.2808L11.6981 39.1696C11.2643 38.2872 10.887 37.3778 10.5698 36.4498L3.53917 34.7758ZM16.2817 61.1386H48.46V56.4654C48.46 53.7874 47.697 51.1797 46.2533 48.924C43.669 44.8859 39.2639 42.4753 34.4698 42.4753H30.2719C25.4778 42.4753 21.0727 44.8859 18.4884 48.9239C17.0448 51.1796 16.2817 53.7874 16.2817 56.4654V61.1386ZM32.3709 38.453C37.2945 38.453 41.3003 34.4472 41.3003 29.5235C41.3003 24.5999 37.2945 20.5941 32.3709 20.5941C27.4472 20.5941 23.4414 24.5999 23.4414 29.5235C23.4414 34.4472 27.4472 38.453 32.3709 38.453ZM12.7684 44.7981L15.0135 47.2042C15.0869 47.0832 15.1596 46.9618 15.2361 46.8425C17.4506 43.3823 20.7137 40.8607 24.4705 39.576C21.4944 37.232 19.5801 33.5971 19.5801 29.5235C19.5801 22.4707 25.3182 16.7327 32.371 16.7327C39.4238 16.7327 45.1618 22.4707 45.1618 29.5235C45.1618 33.5971 43.2476 37.232 40.2715 39.576C44.0282 40.8605 47.2914 43.3823 49.5059 46.8425C49.5653 46.9354 49.6213 47.0301 49.679 47.124L52.185 44.7236L48.8464 39.2982L51.3717 33.2086L57.5986 31.7258V26.1949L51.3716 24.7122L48.8462 18.6226L52.2028 13.1682L48.2919 9.25729L42.8374 12.6139L36.7477 10.0885L35.265 3.86139H29.734L28.2514 10.0884L22.1617 12.6139L16.7074 9.25729L12.7965 13.1682L16.153 18.6226L13.6277 24.7122L7.40068 26.1949V31.7258L13.6277 33.2084L16.153 39.2981L12.7684 44.7981Z" fill="white" stroke="white" stroke-width="0.5"/>
</g>
<defs>
<clipPath id="clip0_454_2553">
<rect width="65" height="65" fill="white" transform="matrix(-1 0 0 1 65 0)"/>
</clipPath>
</defs>
</svg>
