<svg width="51" height="51" viewBox="0 0 51 51" fill="none" xmlns="http://www.w3.org/2000/svg">
<g clip-path="url(#clip0_350_2567)">
<path d="M25.5 0C11.4393 0 0 11.4393 0 25.5C0 39.5607 11.4393 51 25.5 51C39.5607 51 51 39.5607 51 25.5C51 11.4393 39.5607 0 25.5 0ZM25.5 46.3636C13.9956 46.3636 4.63636 37.0042 4.63636 25.5C4.63636 13.9958 13.9956 4.63636 25.5 4.63636C37.0044 4.63636 46.3636 13.9958 46.3636 25.5C46.3636 37.0042 37.0042 46.3636 25.5 46.3636Z" fill="url(#paint0_linear_350_2567)"/>
<path d="M35.0619 16.4843L21.9481 29.598L15.9378 23.5876C15.0327 22.6824 13.5648 22.6822 12.6595 23.5874C11.7541 24.4927 11.7541 25.9604 12.6595 26.8658L20.3088 34.5155C20.7436 34.9502 21.3332 35.1945 21.948 35.1945H21.9481C22.5629 35.1945 23.1525 34.9502 23.5872 34.5156L38.3403 19.7629C39.2456 18.8575 39.2456 17.3898 38.3403 16.4845C37.435 15.5792 35.9672 15.579 35.0619 16.4843Z" fill="url(#paint1_linear_350_2567)"/>
</g>
<defs>
<linearGradient id="paint0_linear_350_2567" x1="25.5" y1="0" x2="25.5" y2="51" gradientUnits="userSpaceOnUse">
<stop stop-color="#2B8FE4"/>
<stop offset="1" stop-color="#009A83"/>
</linearGradient>
<linearGradient id="paint1_linear_350_2567" x1="25.4999" y1="15.8054" x2="25.4999" y2="35.1945" gradientUnits="userSpaceOnUse">
<stop stop-color="#2B8FE4"/>
<stop offset="1" stop-color="#009A83"/>
</linearGradient>
<clipPath id="clip0_350_2567">
<rect width="51" height="51" fill="white"/>
</clipPath>
</defs>
</svg>
