<svg width="94" height="94" viewBox="0 0 94 94" fill="none" xmlns="http://www.w3.org/2000/svg">
<path d="M47 86.1777L87.7344 67.3983C87.5934 67.4834 91.3387 65.7916 94 64.2699C94 66.5407 93.4302 70.7031 91.3121 71.8251L51.4326 89.7527C47.9076 91.4153 46.389 91.4153 42.5702 89.7527L2.69067 71.8251C0.719742 70.9086 0 66.5933 0 64.2699C2.56441 65.5535 6.19524 67.3836 6.26574 67.3983L47 86.1777ZM47 7.9315C46.7827 8.002 46.7063 8.27524 47 7.9315V7.9315ZM91.3121 53.0457L51.4326 70.9732C47.9076 72.6358 46.389 72.6358 42.5702 70.9732L2.69067 53.0457C0.719742 52.1292 0 47.8141 0 45.4903C2.56441 46.7741 6.19524 48.6042 6.26574 48.6189L47 67.3983L87.7344 48.6189C87.5934 48.7042 91.3387 47.012 94 45.4903C94 47.7611 93.4302 51.9237 91.3121 53.0457ZM91.3121 34.2662L51.4326 52.1938C47.9076 53.8565 46.389 53.8565 42.5702 52.1938L2.69067 34.2662C-0.246826 32.8974 -0.34375 27.0752 2.69067 25.4126L42.5702 4.35658C45.7017 2.50008 47.9076 2.597 51.4327 4.35658L91.3121 25.4126C94.3467 27.3689 94.4436 32.6036 91.3121 34.2662ZM47 7.9315L6.26574 29.8393L47 47.0062L87.7344 29.8393L47 7.9315Z" fill="url(#paint0_linear_454_2609)"/>
<defs>
<linearGradient id="paint0_linear_454_2609" x1="47" y1="3.00031" x2="47" y2="90.9997" gradientUnits="userSpaceOnUse">
<stop stop-color="#2B8FE4"/>
<stop offset="1" stop-color="#009A83"/>
</linearGradient>
</defs>
</svg>
