<svg width="61" height="61" viewBox="0 0 61 61" fill="none" xmlns="http://www.w3.org/2000/svg">
<path d="M48.292 35.5833C53.9069 35.5833 58.4587 40.6666 58.4587 44.4791C58.4587 46.5847 56.7517 48.2916 54.6462 48.2916H53.3753M43.2087 27.9583C47.4198 27.9583 50.8337 24.5444 50.8337 20.3333C50.8337 16.1221 47.4198 12.7083 43.2087 12.7083M12.7087 35.5833C7.09376 35.5833 2.54199 40.6666 2.54199 44.4791C2.54199 46.5847 4.24891 48.2916 6.35449 48.2916H7.62533M17.792 27.9583C13.5808 27.9583 10.167 24.5444 10.167 20.3333C10.167 16.1221 13.5808 12.7083 17.792 12.7083M41.9378 48.2916H19.0628C16.9572 48.2916 15.2503 46.5847 15.2503 44.4791C15.2503 38.1249 22.8753 35.5833 30.5003 35.5833C38.1253 35.5833 45.7503 38.1249 45.7503 44.4791C45.7503 46.5847 44.0434 48.2916 41.9378 48.2916ZM38.1253 20.3333C38.1253 24.5444 34.7115 27.9583 30.5003 27.9583C26.2892 27.9583 22.8753 24.5444 22.8753 20.3333C22.8753 16.1221 26.2892 12.7083 30.5003 12.7083C34.7115 12.7083 38.1253 16.1221 38.1253 20.3333Z" stroke="url(#paint0_linear_351_2819)" stroke-width="4" stroke-linecap="round" stroke-linejoin="round"/>
<defs>
<linearGradient id="paint0_linear_351_2819" x1="30.5003" y1="12.7083" x2="30.5003" y2="48.2916" gradientUnits="userSpaceOnUse">
<stop stop-color="#2B8FE4"/>
<stop offset="1" stop-color="#009A83"/>
</linearGradient>
</defs>
</svg>
