<svg width="81" height="81" viewBox="0 0 81 81" fill="none" xmlns="http://www.w3.org/2000/svg">
<path d="M43.875 43.875L54 33.75M54 33.75L43.875 23.625M54 33.75H27M40.5 55.6875C54 55.6875 65.8125 54.5625 67.5 53.4375C69.1875 52.3125 70.875 42.75 70.875 33.75C70.875 24.75 69.1875 15.1875 67.5 14.0625C65.8125 12.9375 54 11.8125 40.5 11.8125C27 11.8125 15.1875 12.9375 13.5 14.0625C11.8125 15.1875 10.125 24.75 10.125 33.75C10.125 42.75 11.8125 52.3125 13.5 53.4375C15.1875 54.5625 27 55.6875 40.5 55.6875ZM40.5 55.6875V69.1875M40.5 69.1875H54M40.5 69.1875H27" stroke="white" stroke-width="4" stroke-linecap="round" stroke-linejoin="round"/>
</svg>
