<svg width="78" height="78" viewBox="0 0 78 78" fill="none" xmlns="http://www.w3.org/2000/svg">
<g clip-path="url(#clip0_469_2224)">
<path d="M54.0252 19.3005C48.4342 19.3005 43.1774 21.4778 39.2239 25.4313L39 25.6554L38.7761 25.4313C34.8224 21.4775 29.5655 19.3004 23.9741 19.3005H0V46.83H4.10693C5.12827 49.9097 6.85849 52.7185 9.17372 55.0337L29.1255 74.9854C32.55 78.41 38.5578 77.5006 40.5224 72.8405C44.0997 74.8607 48.756 73.4618 50.4067 69.5458C53.9838 71.5662 58.6402 70.1669 60.2909 66.251C62.9094 67.73 66.2992 67.4278 68.5418 65.3051C71.3876 62.611 71.4543 58.1097 68.6807 55.3359L68.6025 55.2576C68.785 55.0291 72.1411 52.1133 73.8932 46.83H78V19.3005C76.3118 19.3005 53.9997 19.3005 54.0252 19.3005ZM65.3874 61.9728C64.467 62.8438 62.9576 62.792 62.0225 61.8569L58.7964 58.6306L46.4943 46.3288L43.2499 49.5731L55.5519 61.8749C56.4864 62.8092 56.4819 64.3411 55.5031 65.2676C54.5827 66.1389 53.0733 66.0866 52.1383 65.1515C51.1983 64.2114 41.1493 54.1627 39.9048 52.9182L36.6605 56.1626C38.3313 57.8335 43.9928 63.4949 45.6725 65.1746C46.6027 66.1099 46.5958 67.6378 45.6188 68.5623C44.6986 69.4336 43.1891 69.3817 42.2541 68.4464L39.028 65.2201L33.3153 59.5076L30.071 62.7519L35.7835 68.4644C36.7181 69.3989 36.7134 70.9307 35.7347 71.8571C34.8145 72.7282 33.3051 72.6761 32.3699 71.741L12.4181 51.7894C8.30287 47.6742 7.96793 43.1289 7.6544 42.2417H4.58824V23.8888H23.9741C28.34 23.8886 32.4445 25.5886 35.5316 28.6757L35.7557 28.8997L29.194 35.4614C26.4766 38.1787 26.4763 42.5774 29.194 45.2952C31.9052 48.0064 36.3167 48.0064 39.0278 45.2952L45.5895 38.7335L65.436 58.5803C66.3731 59.5172 66.3641 61.0481 65.3874 61.9728ZM73.4118 42.2417H70.3456L69.9282 44.0083C69.2331 46.9505 67.7302 49.641 65.5819 51.7894L65.4111 51.9602L45.6425 32.1918L35.7835 42.0508C34.8613 42.9729 33.3606 42.9729 32.4384 42.0508C31.5143 41.1266 31.5137 39.6304 32.4384 38.7057L42.4683 28.6757C45.5554 25.5886 49.6598 23.8886 54.0259 23.8888H73.4118V42.2417Z" fill="white"/>
</g>
<defs>
<clipPath id="clip0_469_2224">
<rect width="78" height="78" fill="white"/>
</clipPath>
</defs>
</svg>
