<svg width="18" height="18" viewBox="0 0 18 18" fill="none" xmlns="http://www.w3.org/2000/svg">
<g clip-path="url(#clip0_350_2678)">
<path d="M13.6695 5.95002C13.5327 5.81221 13.3102 5.8113 13.1723 5.94802C13.0345 6.08478 13.0336 6.30739 13.1703 6.44524L13.1725 6.44742C13.2409 6.51643 13.3306 6.55081 13.4204 6.55081C13.51 6.55081 13.5997 6.51657 13.6686 6.44829C13.8064 6.31154 13.8062 6.08787 13.6695 5.95002Z" fill="white"/>
<path d="M17.8966 10.1778L14.6314 6.91251C14.4941 6.77526 14.2715 6.77526 14.1342 6.91251C13.9969 7.04979 13.9969 7.2724 14.1342 7.40972L16.7263 10.0018H10.545C10.0322 10.0018 9.61505 9.58466 9.61505 9.07191V2.8906L12.1176 5.39309C12.2549 5.53034 12.4775 5.53034 12.6148 5.39309C12.7521 5.25581 12.7521 5.0332 12.6148 4.89588L9.43913 1.72025C9.30184 1.583 9.07923 1.583 8.94195 1.72025L3.33734 7.32496C3.20005 7.46225 3.20005 7.68486 3.33734 7.82218L11.7948 16.2796C11.8608 16.3456 11.9502 16.3826 12.0434 16.3826C12.1367 16.3826 12.2261 16.3456 12.292 16.2796L17.8967 10.675C17.9626 10.609 17.9996 10.5196 17.9996 10.4264C17.9996 10.3331 17.9625 10.2437 17.8966 10.1778ZM8.91199 2.74467V7.22202H4.43464L8.91199 2.74467ZM11.6919 15.1823L4.43464 7.92511H8.91199V9.07191C8.91199 9.97237 9.64458 10.705 10.545 10.705H11.6919V15.1823ZM12.395 15.1823V10.705H16.8723L12.395 15.1823Z" fill="white"/>
<path d="M2.41281 8.92963H0.351562C0.157395 8.92963 0 9.08706 0 9.28119C0 9.47532 0.157395 9.63275 0.351562 9.63275H2.41281C2.60698 9.63275 2.76437 9.47536 2.76437 9.28119C2.76437 9.08706 2.60698 8.92963 2.41281 8.92963Z" fill="white"/>
<path d="M3.46133 8.92963H3.45605C3.26189 8.92963 3.10449 9.08706 3.10449 9.28119C3.10449 9.47532 3.26189 9.63275 3.45605 9.63275H3.46133C3.6555 9.63275 3.81289 9.47532 3.81289 9.28119C3.81289 9.08706 3.6555 8.92963 3.46133 8.92963Z" fill="white"/>
<path d="M1.47667 5.23834H0.351562C0.157395 5.23834 0 5.39577 0 5.5899C0 5.78404 0.157395 5.94147 0.351562 5.94147H1.47667C1.67084 5.94147 1.82823 5.78404 1.82823 5.5899C1.82823 5.39577 1.67084 5.23834 1.47667 5.23834Z" fill="white"/>
<path d="M3.95587 5.23834H2.62598C2.43181 5.23834 2.27441 5.39577 2.27441 5.5899C2.27441 5.78404 2.43181 5.94147 2.62598 5.94147H3.95587C4.15004 5.94147 4.30743 5.78404 4.30743 5.5899C4.30743 5.39577 4.15004 5.23834 3.95587 5.23834Z" fill="white"/>
<path d="M4.72067 10.8632H2.75195C2.55779 10.8632 2.40039 11.0206 2.40039 11.2148C2.40039 11.4089 2.55779 11.5663 2.75195 11.5663H4.72067C4.91484 11.5663 5.07223 11.4089 5.07223 11.2148C5.07223 11.0206 4.9148 10.8632 4.72067 10.8632Z" fill="white"/>
<path d="M6.25778 13.1132H1.30078C1.10661 13.1132 0.949219 13.2706 0.949219 13.4647C0.949219 13.6589 1.10661 13.8163 1.30078 13.8163H6.25778C6.45194 13.8163 6.60934 13.6589 6.60934 13.4647C6.60934 13.2706 6.45194 13.1132 6.25778 13.1132Z" fill="white"/>
</g>
<defs>
<clipPath id="clip0_350_2678">
<rect width="18" height="18" fill="white"/>
</clipPath>
</defs>
</svg>
