<svg width="28" height="28" viewBox="0 0 28 28" fill="none" xmlns="http://www.w3.org/2000/svg">
<path d="M7.58325 3.5C11.3098 3.5 13.9999 6.57656 13.9998 11.1319C13.976 17.7506 9.00038 22.4301 1.82238 23.3288C1.15644 23.4122 0.899659 22.4897 1.51291 22.217C4.26716 20.9923 5.65821 19.4382 5.83788 17.9C5.97212 16.7507 5.34737 15.744 4.5629 15.5555C2.52919 15.0668 1.16658 12.5342 1.16658 9.91667C1.16658 6.37284 4.03942 3.5 7.58325 3.5Z" fill="white"/>
<path d="M21.5833 3.5C25.3098 3.5 27.9999 6.57656 27.9998 11.1319C27.976 17.7506 23.0004 22.4301 15.8224 23.3288C15.1564 23.4122 14.8997 22.4897 15.5129 22.217C18.2672 20.9923 19.6582 19.4382 19.8379 17.9C19.9721 16.7507 19.3474 15.744 18.5629 15.5555C16.5292 15.0668 15.1666 12.5342 15.1666 9.91667C15.1666 6.37284 18.0394 3.5 21.5833 3.5Z" fill="white"/>
</svg>
