<svg width="16" height="16" viewBox="0 0 16 16" fill="none" xmlns="http://www.w3.org/2000/svg">
<g clip-path="url(#clip0_350_2703)">
<path d="M12.6451 9.91143C12.3176 9.57036 11.9225 9.38801 11.5037 9.38801C11.0884 9.38801 10.6899 9.56699 10.3488 9.90806L9.28172 10.9718C9.19392 10.9245 9.10612 10.8806 9.0217 10.8367C8.90013 10.7759 8.78532 10.7185 8.68739 10.6577C7.68782 10.0229 6.77943 9.19553 5.90819 8.12505C5.48608 7.5915 5.20242 7.14237 4.99642 6.68648C5.27333 6.43322 5.52998 6.16982 5.77987 5.91655C5.87442 5.82199 5.96897 5.72406 6.06353 5.62951C6.77268 4.92036 6.77268 4.00184 6.06353 3.29269L5.14163 2.37079C5.03695 2.26611 4.92889 2.15805 4.82758 2.04999C4.62496 1.84062 4.41222 1.6245 4.19272 1.42188C3.86516 1.0977 3.47344 0.925476 3.06146 0.925476C2.64947 0.925476 2.251 1.0977 1.91331 1.42188C1.90993 1.42526 1.90993 1.42526 1.90655 1.42864L0.758404 2.58692C0.326159 3.01916 0.0796448 3.54596 0.0256142 4.15718C-0.0554316 5.14324 0.234983 6.06176 0.457859 6.66284C1.00492 8.13855 1.82213 9.5062 3.04119 10.9718C4.52028 12.7379 6.29991 14.1326 8.33281 15.1152C9.1095 15.4833 10.1462 15.919 11.3045 15.9932C11.3754 15.9966 11.4497 16 11.5172 16C12.2973 16 12.9524 15.7197 13.4657 15.1625C13.4691 15.1558 13.4758 15.1524 13.4792 15.1456C13.6548 14.9329 13.8574 14.7404 14.0702 14.5344C14.2154 14.396 14.364 14.2508 14.5092 14.0988C14.8435 13.751 15.0191 13.3457 15.0191 12.9304C15.0191 12.5117 14.8401 12.1098 14.499 11.7721L12.6451 9.91143ZM13.8541 13.4673C13.8507 13.4673 13.8507 13.4707 13.8541 13.4673C13.7224 13.6091 13.5873 13.7375 13.4421 13.8793C13.2226 14.0887 12.9997 14.3082 12.7903 14.5547C12.4493 14.9194 12.0474 15.0916 11.5206 15.0916C11.47 15.0916 11.4159 15.0916 11.3653 15.0882C10.3623 15.0241 9.43031 14.6324 8.73129 14.298C6.81996 13.3728 5.14163 12.0591 3.74697 10.3943C2.59544 9.00642 1.82551 7.72319 1.31559 6.34542C1.00154 5.50457 0.886726 4.84944 0.93738 4.23147C0.971149 3.83637 1.12311 3.50881 1.40339 3.22853L2.55492 2.077C2.72039 1.92166 2.89599 1.83724 3.06821 1.83724C3.28096 1.83724 3.45318 1.96556 3.56124 2.07363C3.56462 2.077 3.56799 2.08038 3.57137 2.08376C3.77736 2.27624 3.97322 2.47548 4.17921 2.68822C4.2839 2.79628 4.39196 2.90435 4.50002 3.01578L5.42192 3.93768C5.77987 4.29563 5.77987 4.62657 5.42192 4.98452C5.32399 5.08245 5.22943 5.18038 5.1315 5.27493C4.84784 5.56535 4.57769 5.8355 4.2839 6.0989C4.27714 6.10565 4.27039 6.10903 4.26701 6.11579C3.9766 6.4062 4.03063 6.68986 4.09141 6.88234C4.09479 6.89247 4.09817 6.90261 4.10154 6.91274C4.3413 7.49356 4.679 8.04062 5.19229 8.69237L5.19566 8.69574C6.12769 9.84389 7.11037 10.7388 8.19436 11.4243C8.33281 11.5121 8.47464 11.583 8.60972 11.6505C8.73129 11.7113 8.8461 11.7687 8.94403 11.8295C8.95754 11.8363 8.97105 11.8464 8.98456 11.8532C9.09937 11.9106 9.20743 11.9376 9.31887 11.9376C9.59915 11.9376 9.77475 11.762 9.83216 11.7046L10.9871 10.5497C11.1019 10.4349 11.2842 10.2964 11.497 10.2964C11.7063 10.2964 11.8786 10.4281 11.9832 10.5429C11.9866 10.5463 11.9866 10.5463 11.99 10.5497L13.8507 12.4103C14.1985 12.7548 14.1985 13.1094 13.8541 13.4673Z" fill="white"/>
<path d="M8.64673 3.80597C9.53148 3.95456 10.3352 4.37329 10.9768 5.01491C11.6184 5.65652 12.0338 6.46022 12.1857 7.34497C12.2229 7.56785 12.4154 7.72319 12.6349 7.72319C12.6619 7.72319 12.6855 7.71981 12.7125 7.71643C12.9624 7.67591 13.1279 7.43953 13.0874 7.18964C12.905 6.11916 12.3985 5.14323 11.6252 4.36992C10.8519 3.5966 9.87593 3.09007 8.80545 2.90771C8.55556 2.86719 8.32255 3.03266 8.27865 3.27917C8.23475 3.52569 8.39684 3.76545 8.64673 3.80597Z" fill="white"/>
<path d="M15.9819 7.05794C15.6813 5.29519 14.8506 3.69116 13.5741 2.41469C12.2977 1.13821 10.6936 0.307495 8.93089 0.00695018C8.68437 -0.0369496 8.45137 0.131896 8.40747 0.37841C8.36694 0.628302 8.53241 0.861308 8.7823 0.905208C10.3559 1.17198 11.7911 1.91828 12.9325 3.0563C14.0739 4.1977 14.8168 5.63288 15.0836 7.20652C15.1208 7.4294 15.3132 7.58474 15.5327 7.58474C15.5598 7.58474 15.5834 7.58136 15.6104 7.57798C15.8569 7.54084 16.0258 7.30445 15.9819 7.05794Z" fill="white"/>
</g>
<defs>
<clipPath id="clip0_350_2703">
<rect width="16" height="16" fill="white"/>
</clipPath>
</defs>
</svg>
