<svg width="119" height="119" viewBox="0 0 119 119" fill="none" xmlns="http://www.w3.org/2000/svg">
<g clip-path="url(#clip0_454_2636)">
<path d="M76.183 64.8177L75.8846 65.1658L68.4186 73.8746L68.1303 74.2108L67.7618 73.9652L60.9024 69.3943C59.8974 68.726 58.5636 68.8573 57.7074 69.7105L76.183 64.8177ZM76.183 64.8177L75.8621 64.4903C72.4715 61.0313 67.7492 58.875 62.5312 58.875C52.2247 58.875 43.8438 67.256 43.8438 77.5625C43.8438 87.869 52.2247 96.25 62.5312 96.25C72.8378 96.25 81.2188 87.869 81.2188 77.5625C81.2188 74.7918 80.5953 72.1687 79.5121 69.8063L79.1865 69.0962L78.678 69.6892L70.5149 79.2104L70.5148 79.2105C69.682 80.1825 68.2546 80.3799 67.189 79.6686L67.1887 79.6684L60.1623 74.9852L59.8212 74.7579L59.5314 75.0477L52.1958 82.3833C51.702 82.8771 51.0547 83.125 50.4062 83.125C49.7582 83.125 49.1104 82.8773 48.6132 82.3828C47.6237 81.3928 47.6239 79.794 48.6137 78.8042L57.7069 69.711L76.183 64.8177ZM46.8748 95.3747L46.7331 95.25H46.5444H20.0938C18.6966 95.25 17.5625 94.1159 17.5625 92.7188V32.0938C17.5625 30.6966 18.6966 29.5625 20.0938 29.5625H98.9062C100.303 29.5625 101.438 30.6966 101.438 32.0938V92.7188C101.438 94.1159 100.303 95.25 98.9062 95.25H91.0674H89.8603L90.7139 96.1036L96.4096 101.799C99.0667 104.456 99.0667 108.784 96.4096 111.441C95.0798 112.771 93.3354 113.434 91.5888 113.434C89.8422 113.434 88.0979 112.771 86.768 111.441L74.0428 98.7157L73.7834 98.4563L73.4581 98.6258C70.1829 100.333 66.4728 101.312 62.5312 101.312C56.533 101.312 51.0624 99.0604 46.8748 95.3747ZM23.125 34.625H22.625V35.125V41.1875V41.6875H23.125H95.875H96.375V41.1875V35.125V34.625H95.875H23.125ZM92.8294 107.863L92.8305 107.862C93.5169 107.175 93.5168 106.065 92.8305 105.378L82.1039 94.6517L81.9635 94.5114L81.9605 94.5083L81.9601 94.508L81.9591 94.5069L81.9587 94.5065L81.9574 94.5053L80.8692 93.417L80.4962 93.044L80.1437 93.4365C79.5954 94.047 79.0137 94.6258 78.4044 95.1757L78.0136 95.5283L78.3858 95.9005L90.3471 107.862L90.3482 107.863C91.0343 108.545 92.1434 108.545 92.8294 107.863ZM95.875 90.1875H96.375V89.6875V47.25V46.75H95.875H23.125H22.625V47.25V89.6875V90.1875H23.125H41.5611H42.4296L41.9935 89.4364C39.9622 85.9381 38.7812 81.8897 38.7812 77.5625C38.7812 64.4678 49.4366 53.8125 62.5312 53.8125C68.9782 53.8125 74.8231 56.4032 79.1084 60.5876L79.4902 60.9603L79.8374 60.5552L83.3112 56.5024L83.8179 55.9113L83.0695 55.6964C81.9966 55.3884 81.2188 54.4514 81.2188 53.3125C81.2188 51.9154 82.3529 50.7812 83.75 50.7812H89.8125C91.2096 50.7812 92.3438 51.9154 92.3438 53.3125V59.375C92.3438 60.7721 91.2096 61.9062 89.8125 61.9062C88.8083 61.9062 87.9457 61.3042 87.5368 60.4352L87.2077 59.7359L86.7047 60.3227L82.9036 64.7575L82.6682 65.0321L82.8553 65.3416C85.0173 68.9172 86.2812 73.0902 86.2812 77.5625C86.2812 81.504 85.302 85.2141 83.5946 88.4894L83.425 88.8147L83.6844 89.0741L84.6514 90.0411L84.7978 90.1875H85.0049H95.875Z" fill="url(#paint0_linear_454_2636)" stroke="#E7FFFB"/>
<path d="M47.375 55.8438H29.1875C27.7904 55.8438 26.6562 54.7096 26.6562 53.3125C26.6562 51.9154 27.7904 50.7812 29.1875 50.7812H47.375C48.7721 50.7812 49.9062 51.9154 49.9062 53.3125C49.9062 54.7096 48.7721 55.8438 47.375 55.8438Z" fill="url(#paint1_linear_454_2636)" stroke="#E7FFFB"/>
<path d="M35.25 64.9375H29.1875C27.7904 64.9375 26.6562 63.8034 26.6562 62.4062C26.6562 61.0091 27.7904 59.875 29.1875 59.875H35.25C36.6471 59.875 37.7812 61.0091 37.7812 62.4062C37.7812 63.8034 36.6471 64.9375 35.25 64.9375Z" fill="url(#paint2_linear_454_2636)" stroke="#E7FFFB"/>
<path d="M32.2188 83.125H29.1875C27.7904 83.125 26.6562 81.9909 26.6562 80.5938C26.6562 79.1966 27.7904 78.0625 29.1875 78.0625H32.2188C33.6159 78.0625 34.75 79.1966 34.75 80.5938C34.75 81.9909 33.6159 83.125 32.2188 83.125Z" fill="url(#paint3_linear_454_2636)" stroke="#E7FFFB"/>
<path d="M32.2188 74.0312H29.1875C27.7904 74.0312 26.6562 72.8971 26.6562 71.5C26.6562 70.1029 27.7904 68.9688 29.1875 68.9688H32.2188C33.6159 68.9688 34.75 70.1029 34.75 71.5C34.75 72.8971 33.6159 74.0312 32.2188 74.0312Z" fill="url(#paint4_linear_454_2636)" stroke="#E7FFFB"/>
</g>
<defs>
<linearGradient id="paint0_linear_454_2636" x1="59.5" y1="29.0625" x2="59.5" y2="113.934" gradientUnits="userSpaceOnUse">
<stop stop-color="#2B8FE4"/>
<stop offset="1" stop-color="#009A83"/>
</linearGradient>
<linearGradient id="paint1_linear_454_2636" x1="38.2812" y1="50.2812" x2="38.2812" y2="56.3438" gradientUnits="userSpaceOnUse">
<stop stop-color="#2B8FE4"/>
<stop offset="1" stop-color="#009A83"/>
</linearGradient>
<linearGradient id="paint2_linear_454_2636" x1="32.2188" y1="59.375" x2="32.2188" y2="65.4375" gradientUnits="userSpaceOnUse">
<stop stop-color="#2B8FE4"/>
<stop offset="1" stop-color="#009A83"/>
</linearGradient>
<linearGradient id="paint3_linear_454_2636" x1="30.7031" y1="77.5625" x2="30.7031" y2="83.625" gradientUnits="userSpaceOnUse">
<stop stop-color="#2B8FE4"/>
<stop offset="1" stop-color="#009A83"/>
</linearGradient>
<linearGradient id="paint4_linear_454_2636" x1="30.7031" y1="68.4688" x2="30.7031" y2="74.5312" gradientUnits="userSpaceOnUse">
<stop stop-color="#2B8FE4"/>
<stop offset="1" stop-color="#009A83"/>
</linearGradient>
<clipPath id="clip0_454_2636">
<rect width="119" height="119" fill="white"/>
</clipPath>
</defs>
</svg>
