<svg width="106" height="106" viewBox="0 0 106 106" fill="none" xmlns="http://www.w3.org/2000/svg">
<path d="M81.2668 100.111H60.6557C59.8307 100.116 59.013 99.9568 58.2499 99.6434C57.4867 99.3301 56.7932 98.8686 56.2095 98.2856C55.0402 97.1011 54.3844 95.5038 54.384 93.8394V87.9506L42.6062 77.38C42.0751 76.9051 41.649 76.3246 41.3549 75.6756C41.0609 75.0267 40.9054 74.3235 40.8984 73.6111C40.8993 72.4454 41.1771 71.2965 41.7088 70.259C42.2406 69.2216 43.0111 68.3253 43.957 67.6439C44.9029 66.9626 45.9971 66.5156 47.1495 66.3398C48.3019 66.164 49.4796 66.2644 50.5857 66.6328L54.384 67.8989V54.855C54.384 52.6997 55.2402 50.6326 56.7642 49.1086C58.2883 47.5845 60.3553 46.7283 62.5107 46.7283C64.666 46.7283 66.733 47.5845 68.2571 49.1086C69.7811 50.6326 70.6373 52.6997 70.6373 54.855V61.215L75.7901 62.54C79.1648 63.4096 82.154 65.3777 84.2865 68.1339C86.4191 70.8902 87.5735 74.2779 87.5679 77.7628V93.8689C87.564 94.6925 87.398 95.5073 87.0792 96.2667C86.7605 97.0262 86.2953 97.7154 85.7102 98.295C85.125 98.8747 84.4315 99.3334 83.6691 99.645C82.9067 99.9566 82.0904 100.115 81.2668 100.111ZM47.1112 73.2283L59.4484 84.2994C59.7725 84.5942 60.0315 84.9533 60.209 85.3538C60.3864 85.7544 60.4784 86.1875 60.479 86.6256V93.81H81.0901V77.7333C81.0912 75.6437 80.3975 73.6129 79.1183 71.9606C77.839 70.3082 76.0468 69.128 74.0234 68.6056L66.5151 66.6917C65.8574 66.5206 65.2727 66.1414 64.8482 65.6107C64.4237 65.0801 64.1821 64.4264 64.1596 63.7472V54.9139C64.1596 54.4219 63.9641 53.9501 63.6162 53.6022C63.2684 53.2543 62.7965 53.0589 62.3045 53.0589C61.8126 53.0589 61.3407 53.2543 60.9929 53.6022C60.645 53.9501 60.4496 54.4219 60.4496 54.9139V72.345C60.4414 72.8376 60.3178 73.3213 60.0887 73.7575C59.8597 74.1936 59.5315 74.57 59.1307 74.8563C58.7298 75.1427 58.2673 75.331 57.7805 75.4062C57.2936 75.4814 56.7959 75.4414 56.3273 75.2894L48.4068 72.6394C48.1524 72.5509 47.8739 72.5625 47.6278 72.6719C47.3817 72.7813 47.1865 72.9802 47.0818 73.2283H47.1112Z" fill="url(#paint0_linear_454_2599)" stroke="white"/>
<path d="M46.7286 100.111H34.1558C29.9935 100.111 26.0017 98.4576 23.0585 95.5145C20.1154 92.5713 18.4619 88.5795 18.4619 84.4172V21.5827C18.4697 17.4229 20.1257 13.4356 23.0671 10.4941C26.0086 7.5526 29.9959 5.89664 34.1558 5.88885H71.8447C76.0046 5.89664 79.9919 7.5526 82.9333 10.4941C85.8748 13.4356 87.5308 17.4229 87.5386 21.5827V56.1505H81.2669V21.5827C81.2669 19.0838 80.2742 16.6872 78.5072 14.9202C76.7402 13.1532 74.3436 12.1605 71.8447 12.1605H34.1558C31.6569 12.1605 29.2603 13.1532 27.4933 14.9202C25.7263 16.6872 24.7336 19.0838 24.7336 21.5827V84.4172C24.7336 86.9161 25.7263 89.3127 27.4933 91.0797C29.2603 92.8467 31.6569 93.8394 34.1558 93.8394H46.7286V100.111Z" fill="url(#paint1_linear_454_2599)" stroke="white"/>
<path d="M62.4229 18.4617H68.6945V24.7333H62.4229V18.4617Z" fill="url(#paint2_linear_454_2599)" stroke="white"/>
<path d="M43.5781 18.4617H56.1509V24.7333H43.5781V18.4617Z" fill="url(#paint3_linear_454_2599)" stroke="white"/>
<defs>
<linearGradient id="paint0_linear_454_2599" x1="64.2332" y1="46.7283" x2="64.2332" y2="100.111" gradientUnits="userSpaceOnUse">
<stop stop-color="#2B8FE4"/>
<stop offset="1" stop-color="#009A83"/>
</linearGradient>
<linearGradient id="paint1_linear_454_2599" x1="53.0002" y1="5.88885" x2="53.0002" y2="100.111" gradientUnits="userSpaceOnUse">
<stop stop-color="#2B8FE4"/>
<stop offset="1" stop-color="#009A83"/>
</linearGradient>
<linearGradient id="paint2_linear_454_2599" x1="65.5587" y1="18.4617" x2="65.5587" y2="24.7333" gradientUnits="userSpaceOnUse">
<stop stop-color="#2B8FE4"/>
<stop offset="1" stop-color="#009A83"/>
</linearGradient>
<linearGradient id="paint3_linear_454_2599" x1="49.8645" y1="18.4617" x2="49.8645" y2="24.7333" gradientUnits="userSpaceOnUse">
<stop stop-color="#2B8FE4"/>
<stop offset="1" stop-color="#009A83"/>
</linearGradient>
</defs>
</svg>
