<svg width="18" height="18" viewBox="0 0 18 18" fill="none" xmlns="http://www.w3.org/2000/svg">
<path d="M10.6504 1.5H8.85039C8.6017 1.5 8.40039 1.7013 8.40039 1.95C8.40039 2.1987 8.6017 2.4 8.85039 2.4H10.6504C10.8991 2.4 11.1004 2.1987 11.1004 1.95C11.1004 1.7013 10.8991 1.5 10.6504 1.5Z" fill="white"/>
<path d="M12.5996 0H5.39961C4.40722 0 3.59961 0.807609 3.59961 1.8V16.2C3.59961 17.1924 4.40722 18 5.39961 18H12.5996C13.592 18 14.3996 17.1924 14.3996 16.2V1.8C14.3996 0.807609 13.592 0 12.5996 0ZM13.4996 16.2C13.4996 16.6971 13.0967 17.1 12.5996 17.1H5.39961C4.9025 17.1 4.49961 16.6971 4.49961 16.2V1.8C4.49961 1.30289 4.9025 0.9 5.39961 0.9H12.5996C13.0967 0.9 13.4996 1.30289 13.4996 1.8V16.2Z" fill="white"/>
<path d="M8.99961 16.5C9.49667 16.5 9.89961 16.0971 9.89961 15.6C9.89961 15.103 9.49667 14.7 8.99961 14.7C8.50255 14.7 8.09961 15.103 8.09961 15.6C8.09961 16.0971 8.50255 16.5 8.99961 16.5Z" fill="white"/>
<path d="M7.35039 2.4C7.59892 2.4 7.80039 2.19853 7.80039 1.95C7.80039 1.70147 7.59892 1.5 7.35039 1.5C7.10186 1.5 6.90039 1.70147 6.90039 1.95C6.90039 2.19853 7.10186 2.4 7.35039 2.4Z" fill="white"/>
</svg>
